<?xml version="1.0" encoding="utf-8"?>
<!-- Generator: Adobe Illustrator 22.0.1, SVG Export Plug-In . SVG Version: 6.00 Build 0)  -->
<svg version="1.1" id="Calque_1" xmlns="http://www.w3.org/2000/svg" xmlns:xlink="http://www.w3.org/1999/xlink" x="0px" y="0px"
	 viewBox="0 0 90 70.9" style="enable-background:new 0 0 90 70.9;" xml:space="preserve">
<title>desktop2</title>
<g>
	<path d="M84.7,0H5.3C2.4,0,0,2.4,0,5.3V52c0,2.9,2.4,5.3,5.3,5.3h31.5v4.5c0,0.8-0.3,1.7-0.8,2.4l-3.3,4.4c-0.5,0.6-0.3,1.6,0.3,2
		c0.2,0.2,0.5,0.3,0.9,0.3h22.3c0.8,0,1.5-0.7,1.4-1.5c0-0.3-0.1-0.6-0.3-0.9L54,64.2c-0.5-0.7-0.8-1.5-0.8-2.4v-4.5h31.5
		c2.9,0,5.3-2.4,5.3-5.3V5.3C90,2.4,87.6,0,84.7,0z M5.3,2.9h79.4c1.3,0,2.4,1.1,2.4,2.4v40.5H2.9V5.3C2.9,4,4,2.9,5.3,2.9z
		 M51.7,65.9l1.5,2H36.8l1.5-2c0.9-1.2,1.4-2.6,1.4-4.1v-4.5h10.6v4.5C50.3,63.3,50.8,64.8,51.7,65.9L51.7,65.9z M84.7,54.4H5.3
		c-1.3,0-2.4-1.1-2.4-2.4v-3.3h84.2V52C87.1,53.4,86,54.4,84.7,54.4L84.7,54.4z"/>
	<path d="M45,9.2c0.9,0,1.5-0.7,1.5-1.5S45.9,6.1,45,6.1s-1.5,0.7-1.5,1.5v0C43.4,8.5,44.1,9.2,45,9.2C45,9.2,45,9.2,45,9.2z"/>
	<path d="M38.1,28.4c0.4,0,0.7-0.2,1-0.4l5.2-5.2c0.5-0.6,0.5-1.5-0.1-2.1c-0.6-0.5-1.4-0.5-1.9,0l-5.1,5.1c-0.5,0.6-0.5,1.4,0,2
		C37.4,28.2,37.7,28.4,38.1,28.4z"/>
	<path d="M50.8,29.3l-5.2,5.2c-0.6,0.6-0.6,1.5,0,2.1s1.5,0.6,2.1,0l5.2-5.1c0.5-0.6,0.4-1.5-0.3-2C52.1,29,51.4,29,50.8,29.3
		L50.8,29.3z"/>
	<path d="M38.3,35.3c0.6,0.5,1.4,0.5,2,0l11.3-11.3c0.5-0.6,0.3-1.6-0.3-2c-0.5-0.4-1.2-0.4-1.7,0L38.3,33.3
		C37.8,33.8,37.8,34.7,38.3,35.3C38.3,35.3,38.3,35.3,38.3,35.3z"/>
</g>
</svg>
