<?xml version="1.0" encoding="utf-8"?>
<!-- Generator: Adobe Illustrator 22.1.0, SVG Export Plug-In . SVG Version: 6.00 Build 0)  -->
<svg version="1.1" id="Calque_1" xmlns="http://www.w3.org/2000/svg" xmlns:xlink="http://www.w3.org/1999/xlink" x="0px" y="0px"
	 viewBox="0 0 1541.7 257.8" style="enable-background:new 0 0 1541.7 257.8;" xml:space="preserve">
<style type="text/css">
	.st0{display:none;}
	.st1{fill:#FFFFFF;}
</style>
<rect x="-194.5" y="-411.2" class="st0" width="1920" height="1080"/>
<g>
	<path class="st1" d="M443.6,70.9c-2.1,1.2-4.3,3.2-6.5,5.3c-17.6,14.8-26.5,20.6-37.3,28.1c-2.8-13.4-5.8-26.9-7.3-40.4
		c9.7-19.4,14-41.3,5.2-58C394-1,379.1-2.6,375.6,5.4c-7.5,17.5-8.8,35.6-7.4,53.9C363,68.6,357,77,352.1,82.5
		c-5.2,6-15.5,16.8-23.5,10c-15.8-13.4-18.1-43.8-20.7-62.6c-1.4-10.6-21.7-10.9-23.7-0.4c-4.2,22.1-7,72.1-35.1,77.2
		c-0.1-0.4-0.1-0.8-0.2-1.1c-2.8-17.6-3.6-37.9-9.9-54.8c-2.8-7.5-17.7-9.6-22-2.2c-12.8,22.6-19.2,48.7-25.5,74.6
		c-1.8-7.9-3.4-15.9-5.4-23.6c-4.8-18.9-9.6-44.2-24.2-58.5c-6.4-6.2-17.3-6.2-22,2.1c-8.5,15.3-16,32.7-22,51
		c-5.5-25.6-15.2-49.7-32.8-69c-5.7-6.2-18.2-6.4-22,2.1c-24.7,55.4-31.4,116.9-31.5,177c0,12,24,12.1,24,0.1
		c0.1-51.3,5-103.1,22.3-151.4c23.1,39.6,22.7,92.4,24.6,136.5c0.5,12,24.3,12.1,24,0.1c-0.9-38.8,9.6-83.7,26.2-120.9
		c5.4,13.1,8.2,28.3,11.2,40.4c5.1,19.9,8.1,41.1,16.1,60.1c3.5,8.4,20,9.4,23.2,0.1c8-24.1,12.3-51.2,20-76.4
		c0.7,5.9,1.4,11.8,2.3,17.4c3.4,21.9,6.1,44.6,12.9,65.8c3.5,11,27.1,7.6,23.2-4.7c-4.8-14.9-7.4-30.6-9.8-46.2
		c24.7-1.8,37.3-19.7,44.7-41.2c4.2,9.1,9.8,17.1,17.7,22.7c15,10.6,33.4,7.3,47.4-3.3c3.7-2.8,7.5-6.4,11.2-10.4
		c1.7,9.2,3.6,18.5,5.2,27.7c-3,2.3-6.1,4.9-9.7,7.8c-25,20.7-78.6,60.7-69.2,99.6c4.9,20,29.9,29.6,48.1,29.7
		c24,0.2,39.9-24.6,48.2-43.8c10.3-24,11.8-49.4,9.7-75.1c-0.3-3.9-0.8-7.8-1.4-11.7c1.3-1,2.6-2.1,4-3.1
		c29.4-23.1,24.8-15.3,53.1-39.7C471.2,75.2,451.3,66.5,443.6,70.9z M381.5,175c-2.4,20.8-11.1,47.9-28.7,60.8
		c-16,11.8-33.4-5.9-29.6-22.2c3.9-16.9,19.8-32,31.5-43.8c8.5-8.7,17.6-16.9,26.9-24.8C382.5,155.1,382.6,165.1,381.5,175z"/>
	<g>
		<g>
			<path class="st1" d="M674.4,214.1c-0.3,2.3-1.4,4-1.4,4s-1.1,1.1-3.1,1.7c-27.3,11.1-57.7,7.4-57.7,7.4
				c-49.2-5.4-80.4-35.5-90.3-74.5C507.1,94.5,536.4,53,543.5,44.2c17.3-20.7,44.3-35.5,70.7-38.9c33.8-4.8,58.8,3.1,69,6.5
				c0,0,11.4,3.7,19.9,9.4c4.3,2.8,4.8,4,4.8,4s0.3,0.6-0.9,5.1l-7.9,41.8c-0.3,1.7-1.4,2.6-1.4,2.6s-0.6,0.3-4.5-2.3
				c-25.6-18.2-55.4-15.9-55.4-15.9c-22.8,1.4-49.2,13.4-57.1,43.5c-7.1,26.7,0.3,49.1,16.2,62.5c10.8,9.4,27.6,14.2,45.2,13.4
				c19.3-1.4,34.7-9.1,33.5-8.5c0,0,0.8-0.3,1.7-0.5c4-2,4.8-1.7,4.8-1.7s0.9,0.8,0.3,3.4L674.4,214.1z"/>
			<path class="st1" d="M1115.7,221.6h-51c-0.8,0-1.6,0-1.6,0s-0.3-0.3-0.6-0.6L991.8,95.5c-0.5-0.6-0.8-0.6-0.8-0.6s-0.6,0-0.6,0.9
				l-17.5,123.3c-0.3,1.4-0.6,1.6-0.6,1.6s-0.6,0.3-1.4,0.3h-50.7c-0.8,0-1.4-0.5-1.4-0.5s-1.1-1.1-0.8-2.2l27.8-199.6
				c0.3-1.1,0.8-1.4,0.8-1.4s0.9-0.8,1.7-0.8h56.5c0.8,0,1.4,0.5,1.4,0.5s0.6,0.3,0.9,1.1l63.8,111.9c1.1,2.2,1.9,2,1.9,2
				s0.9,0,1.4-2.5l16.2-111.4c0-0.8,0.6-1.1,0.6-1.1s0.3-0.3,1.1-0.3h53.2c1.1,0,1.4,0.6,1.4,0.6s0.3,0.3,0.3,0.8l-28.7,201.3
				c-0.3,1.1-0.8,2-0.8,2S1117.1,221.6,1115.7,221.6z"/>
			<path class="st1" d="M858.4,18.1c-0.3-0.8-0.5-1.1-0.5-1.1s-0.9-0.8-2-0.8h-63.8c-1.4,0-2,0-2,0s-0.8,0.3-1.4,1.4l-100,201
				c-0.6,1.1-0.3,2-0.3,2s0.3,0.8,2,0.5H748c0.9,0,1.7-0.5,1.7-0.5s0.3-0.3,0.8-1.4l13.9-29.8c0.8-1.9,1.9-2.7,1.9-2.7
				s0.9-1.1,2.2-1.1h69.9c0.5,0,0.8,0,0.8,0s0.6,0.3,0.6,1.1l7.8,32c0.3,2,0.6,2.2,0.6,2.2s0.8,0.4,1.9,0.4h49.6
				c0.6,0,0.8-0.4,0.8-0.4s0.6-0.2,0.6-1.1L858.4,18.1z M832.6,140.6c0,0-0.3,0.3-0.6,0.3l-40.9-0.3c-1.4,0-1.7-0.3-1.7-0.3
				s-0.2-0.6,0.3-1.4l27.8-63.2c0.3-0.6,0.6-0.6,0.6-0.6s0.2,0,0.2,0.6l14.2,63.7C832.9,140.3,832.6,140.6,832.6,140.6z"/>
			<path class="st1" d="M1220.2,16.3c-0.9,0-1.9,0.7-2.2,1.5l-77.7,202.4c-0.3,0.9,0.2,1.5,1.1,1.5h53.1c0.9,0,1.9-0.7,2.3-1.5
				l12.8-32.5c0.3-0.9,1.3-1.5,2.3-1.5h70.4c0.9,0,1.9,0.7,2.2,1.5l12.3,32.5c0.3,0.9,1.3,1.5,2.2,1.5h53.7c0.9,0,1.4-0.7,1.1-1.5
				l-76.4-202.4c-0.3-0.8-1.3-1.5-2.2-1.5L1220.2,16.3L1220.2,16.3z M1226.5,145.6c-0.9,0-1.4-0.7-1.1-1.5l21.3-62.2
				c0.3-0.9,0.8-0.9,1,0l20.8,62.1c0.3,0.9-0.2,1.6-1.1,1.6L1226.5,145.6L1226.5,145.6z"/>
			<path class="st1" d="M1430.8,168.5c0,1,0.8,1.9,1.9,1.9h64.8c1,0,1.9,0.8,1.9,1.9v47.9c0,1-0.9,1.9-1.9,1.9h-125.9
				c-1,0-1.9-0.9-1.9-1.9v-210c0-1,0.9-1.9,1.9-1.9h57.4c1,0,1.9,0.9,1.9,1.9v158.3H1430.8z"/>
		</g>
	</g>
</g>
</svg>
