<?xml version="1.0" encoding="utf-8"?>
<!-- Generator: Adobe Illustrator 22.1.0, SVG Export Plug-In . SVG Version: 6.00 Build 0)  -->
<svg version="1.1" id="Calque_1" xmlns="http://www.w3.org/2000/svg" xmlns:xlink="http://www.w3.org/1999/xlink" x="0px" y="0px"
	 viewBox="0 0 227 102.5" style="enable-background:new 0 0 227 102.5;" xml:space="preserve">
<style type="text/css">
	.st0{fill:url(#SVGID_1_);}
	.st1{fill:url(#SVGID_2_);}
	.st2{opacity:0.56;fill:#C93826;}
	.st3{opacity:0.1;fill:url(#SVGID_3_);}
	.st4{opacity:0.2;fill:url(#SVGID_4_);}
	.st5{opacity:0.1;fill:url(#SVGID_5_);}
	.st6{opacity:0.39;fill:url(#SVGID_6_);}
	.st7{opacity:4.000000e-02;fill:url(#SVGID_7_);}
	.st8{opacity:3.000000e-02;fill:#FFFFFF;}
	.st9{opacity:0.4;fill:#C93826;}
	.st10{opacity:0.67;fill:url(#SVGID_8_);}
	.st11{fill:#3F3A3D;}
	.st12{fill:#FFFFFF;}
</style>
<g>
	<g>
		<radialGradient id="SVGID_1_" cx="92.1609" cy="64.3906" r="67.7966" gradientUnits="userSpaceOnUse">
			<stop  offset="0.309" style="stop-color:#EB462E"/>
			<stop  offset="0.3989" style="stop-color:#EB462E"/>
			<stop  offset="0.4412" style="stop-color:#F07664"/>
			<stop  offset="0.4894" style="stop-color:#F5A69B"/>
			<stop  offset="0.5342" style="stop-color:#FACDC6"/>
			<stop  offset="0.5743" style="stop-color:#FDE8E5"/>
			<stop  offset="0.6082" style="stop-color:#FEF9F8"/>
			<stop  offset="0.6319" style="stop-color:#FFFFFF"/>
		</radialGradient>
		<path class="st0" d="M125.5,63.6c1.5-7.4,1-14.7,0.4-20.6c-0.1-0.5-0.2-0.9-0.3-1.4c0.2,6.4,2.2,30.8-21.6,42.1
			C95.3,86.5,88.8,80,88.8,80s0.8,10.3-6.3,15c-5.1,3.3-14.2,2.3-22.8-1.5c0,0,2.6,1.6,10.9,3.7c4.1,1.1,8.4,1.4,12.9,1.2
			C103.9,97.4,121.7,82.2,125.5,63.6z"/>
		
			<radialGradient id="SVGID_2_" cx="93.9194" cy="86.4609" r="74.3242" gradientTransform="matrix(0.9982 -6.050000e-02 6.050000e-02 0.9982 -1.2148 6.3117)" gradientUnits="userSpaceOnUse">
			<stop  offset="0.1461" style="stop-color:#EB462E"/>
			<stop  offset="0.3259" style="stop-color:#E1422C"/>
			<stop  offset="0.5955" style="stop-color:#C93826"/>
			<stop  offset="0.7215" style="stop-color:#D73929"/>
			<stop  offset="0.8371" style="stop-color:#DF392B"/>
		</radialGradient>
		<path class="st1" d="M100.2,7.6c15.9,7.1,27.4,22.5,28.5,41.1c1.6,26.5-18.6,49.3-45.1,50.9C57.2,101.2,34.4,81,32.8,54.5
			C31.2,28,51.4,5.2,77.9,3.6C85.8,3.1,93.4,4.6,100.2,7.6"/>
		<path class="st2" d="M47.8,19.8c0,0,6.8-8.8,17-12.1C64.8,7.7,54.9,11.9,47.8,19.8z"/>
		<radialGradient id="SVGID_3_" cx="102.4869" cy="47.5821" r="26.2328" gradientUnits="userSpaceOnUse">
			<stop  offset="0.6629" style="stop-color:#EB462E"/>
			<stop  offset="0.7472" style="stop-color:#EB462E"/>
			<stop  offset="0.7978" style="stop-color:#EB462E"/>
			<stop  offset="0.8371" style="stop-color:#EB462E"/>
			<stop  offset="0.8989" style="stop-color:#FFFFFF"/>
		</radialGradient>
		<path class="st3" d="M120.4,29.5c0,0,7.3,11,5.4,26.5c-0.1,0-4-2.5-7.3-2.7C118.3,53.5,121.1,43.6,120.4,29.5z"/>
		
			<radialGradient id="SVGID_4_" cx="53.2518" cy="72.2514" r="56.2141" gradientTransform="matrix(0.9987 -5.030000e-02 5.030000e-02 0.9987 2.482 -17.9083)" gradientUnits="userSpaceOnUse">
			<stop  offset="0.3371" style="stop-color:#C93826"/>
			<stop  offset="0.3551" style="stop-color:#CB3E2D"/>
			<stop  offset="0.3804" style="stop-color:#CF4F3F"/>
			<stop  offset="0.41" style="stop-color:#D76A5D"/>
			<stop  offset="0.4428" style="stop-color:#E19187"/>
			<stop  offset="0.4783" style="stop-color:#EEC2BC"/>
			<stop  offset="0.5155" style="stop-color:#FEFDFD"/>
			<stop  offset="0.5169" style="stop-color:#FFFFFF"/>
		</radialGradient>
		<path class="st4" d="M38.5,33.4c0,0-6.2,8.5-4.1,23.7c0,0.1,4.1-2.2,8-3.5c0.1-0.1-2.3-4.3-1.6-9.9C40.9,43.7,39,39.4,38.5,33.4z"
			/>
		<radialGradient id="SVGID_5_" cx="49.0168" cy="61.5671" r="31.9668" gradientUnits="userSpaceOnUse">
			<stop  offset="0.2135" style="stop-color:#C93826"/>
			<stop  offset="0.2355" style="stop-color:#CB3E2D"/>
			<stop  offset="0.2663" style="stop-color:#CF4F3F"/>
			<stop  offset="0.3023" style="stop-color:#D76A5D"/>
			<stop  offset="0.3423" style="stop-color:#E19187"/>
			<stop  offset="0.3856" style="stop-color:#EEC2BC"/>
			<stop  offset="0.431" style="stop-color:#FEFDFD"/>
			<stop  offset="0.4326" style="stop-color:#FFFFFF"/>
		</radialGradient>
		<path class="st5" d="M36.4,66.6c0,0,1.7-5.6,5.4-10.6c0,0,0.4,2,0.5,2.4c0,0.1-3.6,6.7-1.9,17.5C40.4,76,37.7,71.3,36.4,66.6z"/>
		<radialGradient id="SVGID_6_" cx="47.6853" cy="48.144" r="38.4774" gradientUnits="userSpaceOnUse">
			<stop  offset="0.2135" style="stop-color:#C93826"/>
			<stop  offset="0.316" style="stop-color:#CF3B28"/>
			<stop  offset="0.4593" style="stop-color:#E2422C"/>
			<stop  offset="0.5169" style="stop-color:#EB462E"/>
		</radialGradient>
		<path class="st6" d="M40.5,28.3c0,0-2.2,1.9-4.3,8.9c0.2,0.1,1.9,5.8,5.5,10.6C41.8,48,38.5,36.1,40.5,28.3z"/>
		<radialGradient id="SVGID_7_" cx="273.8713" cy="53.7442" r="207.1227" gradientUnits="userSpaceOnUse">
			<stop  offset="0.6685" style="stop-color:#C93826"/>
			<stop  offset="0.7379" style="stop-color:#D63D29"/>
			<stop  offset="0.8708" style="stop-color:#EB462E"/>
			<stop  offset="0.8844" style="stop-color:#EC4B34"/>
			<stop  offset="0.9027" style="stop-color:#ED5B45"/>
			<stop  offset="0.9238" style="stop-color:#F07462"/>
			<stop  offset="0.947" style="stop-color:#F49789"/>
			<stop  offset="0.9718" style="stop-color:#F9C4BC"/>
			<stop  offset="0.9977" style="stop-color:#FEFAF9"/>
			<stop  offset="1" style="stop-color:#FFFFFF"/>
		</radialGradient>
		<path class="st7" d="M46.2,21.3c0,0-12.8,11.2-12,32.8C35,76.7,50,87.2,51.9,88.4c11.7,7,30.8,15.7,35.4-1
			C87.3,87.6,21.4,71.3,46.2,21.3z"/>
		<path class="st8" d="M46.2,21.3c0,0-12.8,11.2-12,32.8C35,76.7,50,87.2,51.9,88.4c11.7,7,30.8,15.7,35.4-1
			C87.3,87.6,21.4,71.3,46.2,21.3z"/>
		<path class="st9" d="M103.5,13.5c0,0,14.3,6.4,17.3,19.6c1.1,3.8-1.1,4.1-1.1,4.1S118.6,23.3,103.5,13.5z"/>
		<radialGradient id="SVGID_8_" cx="65.3226" cy="-53.8172" r="87.6797" gradientUnits="userSpaceOnUse">
			<stop  offset="0.6292" style="stop-color:#FFFFFF"/>
			<stop  offset="0.6466" style="stop-color:#FEF9F9"/>
			<stop  offset="0.6705" style="stop-color:#FDEAE7"/>
			<stop  offset="0.6979" style="stop-color:#FBD0CB"/>
			<stop  offset="0.7135" style="stop-color:#F9BEB7"/>
			<stop  offset="0.7317" style="stop-color:#F6A499"/>
			<stop  offset="0.771" style="stop-color:#EE624E"/>
			<stop  offset="0.7865" style="stop-color:#EB462E"/>
			<stop  offset="0.9326" style="stop-color:#DF392B"/>
		</radialGradient>
		<path class="st10" d="M108.4,18.6C100.6,9.5,88.8,4,75.9,4.8c-15.5,0.9-28.4,10.7-34,24.1c0,0,25.3-23.4,56.2,2.6
			c0,0,6.1-9.4,10-12.7L108.4,18.6z"/>
	</g>
	<g>
		<rect x="3.6" y="37.4" class="st11" width="154.4" height="34"/>
		<g>
			<path class="st12" d="M19.5,56.8h-3.1v6.3h-4.9v-19h7.8c2,0,3.6,0.5,4.7,1.6c1.2,1.2,1.8,2.7,1.8,4.7
				C25.9,54.7,23.8,56.8,19.5,56.8z M18,48.1h-1.6v4.7H18c1.8,0,2.7-0.8,2.7-2.4C20.7,48.9,19.8,48.1,18,48.1z"/>
			<path class="st12" d="M28,63.1v-19h4.9v14.8h5.9v4.2H28z"/>
			<path class="st12" d="M54.3,63.1L53,59.8h-6.8L45,63.1h-5.2l7.3-19h5.4l7.2,19H54.3z M49.7,50l-2.1,6h4.1L49.7,50z"/>
			<path class="st12" d="M74.7,63.1l-9-11.6v11.6h-4.9v-19h4.9l9,11.6V44.1h4.9v19H74.7z"/>
			<path class="st12" d="M83.1,63.1v-19h1.6l-0.3-0.8h7.5l0.3,0.8h1.6v4.2H88v3.2h5.5v4.2H88v3.3h5.8v4.2H83.1z"/>
			<path class="st12" d="M104.3,48.3v14.8h-4.9V48.3h-4v-4.2h13v4.2H104.3z"/>
			<path class="st12" d="M110,63.1v-19h10.8v4.2H115v3.2h5.5v4.2H115v3.3h5.8v4.2H110z"/>
		</g>
		<path class="st12" d="M143.6,56.3v6.8c0,0.3-0.1,0.4-0.2,0.4h-5.2c-0.2,0-0.3-0.1-0.3-0.3v-6.8c0-0.3-0.1-0.4-0.3-0.4h-6.8
			c-0.2,0-0.3-0.1-0.3-0.4v-5.2c0-0.2,0.1-0.3,0.3-0.3h6.8c0.2,0,0.3-0.1,0.3-0.3V44c0-0.2,0.1-0.3,0.3-0.3h5.2
			c0.2,0,0.3,0.1,0.3,0.3v5.9c0,0.3,0.1,0.3,0.3,0.3h6.8c0.2,0,0.3,0.1,0.3,0.3v5.2c0,0.2-0.1,0.3-0.3,0.3H144
			C143.7,56,143.6,56.1,143.6,56.3z"/>
	</g>
	<g>
		<path class="st12" d="M176.3,15c-4.7,0-8,1.8-10,5.4c-0.6,1.2-1.1,2.8-1.4,4.8h7.5c0.1-2.5,1.3-3.7,3.5-3.7c2.1,0,3.2,1.1,3.2,3.3
			c0,2.2-1.3,3.3-4,3.3h-0.5v5.5c0.2,0,0.3,0,0.5,0h0.3c3.2,0,4.8,1.3,4.8,4c0,2.5-1.6,4.3-4.1,4.3c-1.2,0-2.3-0.4-3.1-1.3
			c-0.5-0.5-0.8-1-1-1.5c-0.1-0.3-0.3-0.9-0.4-1.8h-8.3c0.1,1.2,0.2,2,0.3,2.4c0.2,1.1,0.5,2,0.9,2.7c0.7,1.3,1.7,2.5,3.2,3.5
			c2.7,1.8,5.5,2.8,8.3,2.8c1.8,0,3.5-0.3,5-0.8c4.5-1.5,7.3-4.8,7.3-9.5c0-2.7-0.8-4.9-2.5-6.5c-0.6-0.6-1.5-1.1-2.6-1.5
			c0.8-0.5,1.4-1.1,1.9-1.7c1-1.3,1.5-2.9,1.5-4.7c0-2.8-1-5-2.8-6.6C181.9,15.9,179.4,15,176.3,15"/>
		<path class="st12" d="M203.4,41.5c-2,0-3.4-1.2-4.3-3.6c-0.6-1.6-0.9-3.7-0.9-6c0-2.5,0.3-4.5,0.9-6c0.9-2.4,2.3-3.5,4.3-3.5
			c3.4,0,5.1,3.2,5.1,9.6c0,2.4-0.3,4.4-0.9,6C206.8,40.3,205.4,41.5,203.4,41.5 M203.3,15c-3.9,0-7.1,1.5-9.6,4.7
			c-2.4,3.1-3.6,7.2-3.6,12.2c0,2.5,0.3,4.8,1,6.8c0.9,3,2.4,5.4,4.5,7.1c2.2,1.9,4.8,2.8,7.9,2.8c4,0,7.1-1.5,9.5-4.6
			c2.5-3.1,3.7-7.1,3.7-12.1c0-2.5-0.3-4.9-1-7c-1-3-2.4-5.4-4.5-7.1C209,15.9,206.4,15,203.3,15"/>
	</g>
	<g>
		<path class="st12" d="M176.3,71.4L175,68h-7.1l-1.3,3.4h-5.4l7.6-19.7h5.6l7.5,19.7H176.3z M171.5,57.8l-2.2,6.3h4.3L171.5,57.8z"
			/>
		<path class="st12" d="M196.7,71.4l-9.4-12.1v12.1h-5.1V51.7h5.1l9.4,12.1V51.7h5.1v19.7H196.7z"/>
		<path class="st12" d="M214.8,56.8c-1.1-0.9-2.2-1.3-3.3-1.3c-0.6,0-1.1,0.1-1.5,0.4c-0.5,0.3-0.7,0.7-0.7,1.3c0,0.6,0.4,1,1.1,1.4
			c0.2,0.1,1,0.4,2.5,0.8c1.6,0.5,2.8,1.2,3.6,2c0.8,0.9,1.3,2.1,1.3,3.5c0,1.4-0.2,2.6-0.7,3.6c-0.6,1.2-1.6,2.1-3,2.7
			c-1.2,0.5-2.5,0.8-4,0.8s-2.9-0.3-4.5-0.9c-0.8-0.3-1.4-0.6-1.8-0.9c-0.2-0.1-0.4-0.3-0.6-0.4l2.2-4.1c1.6,1.3,3.1,2,4.5,2
			c0.7,0,1.3-0.2,1.7-0.4c0.5-0.3,0.8-0.8,0.8-1.5c0-0.6-0.3-1-0.8-1.4c-0.3-0.2-0.7-0.3-1.2-0.5c-0.2-0.1-0.5-0.2-1.1-0.3l-1.1-0.3
			c-0.7-0.2-1.3-0.4-1.9-0.8c-1.6-0.8-2.3-2.3-2.3-4.4c0-2,0.6-3.6,1.9-4.8c1.2-1.2,2.9-1.8,4.8-1.8c2.1,0,4.2,0.5,6.3,1.6
			L214.8,56.8z"/>
	</g>
</g>
</svg>
