<?xml version="1.0" encoding="utf-8"?>
<!-- Generator: Adobe Illustrator 22.1.0, SVG Export Plug-In . SVG Version: 6.00 Build 0)  -->
<svg version="1.1" id="Calque_2" xmlns="http://www.w3.org/2000/svg" xmlns:xlink="http://www.w3.org/1999/xlink" x="0px" y="0px"
	 viewBox="0 0 227 102.5" style="enable-background:new 0 0 227 102.5;" xml:space="preserve">
<style type="text/css">
	.st0{fill:url(#SVGID_1_);}
	.st1{fill:url(#SVGID_2_);}
	.st2{opacity:0.56;fill:#C93826;}
	.st3{opacity:0.1;fill:url(#SVGID_3_);}
	.st4{opacity:0.2;fill:url(#SVGID_4_);}
	.st5{opacity:0.1;fill:url(#SVGID_5_);}
	.st6{opacity:0.39;fill:url(#SVGID_6_);}
	.st7{opacity:4.000000e-02;fill:url(#SVGID_7_);}
	.st8{opacity:3.000000e-02;fill:#FFFFFF;}
	.st9{opacity:0.4;fill:#C93826;}
	.st10{opacity:0.67;fill:url(#SVGID_8_);}
	.st11{fill:#3F3A3D;}
	.st12{fill:#FFFFFF;}
	.st13{fill:#EB212E;}
</style>
<g>
	<radialGradient id="SVGID_1_" cx="91.4377" cy="64.5052" r="67.7966" gradientUnits="userSpaceOnUse">
		<stop  offset="0.309" style="stop-color:#EB462E"/>
		<stop  offset="0.3989" style="stop-color:#EB462E"/>
		<stop  offset="0.4412" style="stop-color:#F07664"/>
		<stop  offset="0.4894" style="stop-color:#F5A69B"/>
		<stop  offset="0.5342" style="stop-color:#FACDC6"/>
		<stop  offset="0.5743" style="stop-color:#FDE8E5"/>
		<stop  offset="0.6082" style="stop-color:#FEF9F8"/>
		<stop  offset="0.6319" style="stop-color:#FFFFFF"/>
	</radialGradient>
	<path class="st0" d="M124.8,63.7c1.5-7.4,1-14.7,0.4-20.6c-0.1-0.5-0.2-0.9-0.3-1.4c0.2,6.4,2.2,30.8-21.6,42.1
		c-8.8,2.8-15.2-3.7-15.2-3.7s0.8,10.3-6.3,15c-5.1,3.3-14.2,2.3-22.8-1.5c0,0,2.6,1.6,10.9,3.7c4.1,1.1,8.4,1.4,12.9,1.2
		C103.1,97.5,121,82.4,124.8,63.7z"/>
	
		<radialGradient id="SVGID_2_" cx="93.1907" cy="86.5316" r="74.3242" gradientTransform="matrix(0.9982 -6.050000e-02 6.050000e-02 0.9982 -1.2148 6.3117)" gradientUnits="userSpaceOnUse">
		<stop  offset="0.1461" style="stop-color:#EB462E"/>
		<stop  offset="0.3259" style="stop-color:#E1422C"/>
		<stop  offset="0.5955" style="stop-color:#C93826"/>
		<stop  offset="0.7215" style="stop-color:#D73929"/>
		<stop  offset="0.8371" style="stop-color:#DF392B"/>
	</radialGradient>
	<path class="st1" d="M99.5,7.7c15.9,7.1,27.4,22.5,28.5,41.1c1.6,26.5-18.6,49.3-45.1,50.9c-26.5,1.6-49.3-18.6-50.9-45.1
		C30.4,28.1,50.6,5.3,77.1,3.7C85.1,3.2,92.7,4.7,99.5,7.7"/>
	<path class="st2" d="M47.1,19.9c0,0,6.8-8.8,17-12.1C64.1,7.8,54.2,12,47.1,19.9z"/>
	<radialGradient id="SVGID_3_" cx="101.7637" cy="47.6967" r="26.2328" gradientUnits="userSpaceOnUse">
		<stop  offset="0.6629" style="stop-color:#EB462E"/>
		<stop  offset="0.7472" style="stop-color:#EB462E"/>
		<stop  offset="0.7978" style="stop-color:#EB462E"/>
		<stop  offset="0.8371" style="stop-color:#EB462E"/>
		<stop  offset="0.8989" style="stop-color:#FFFFFF"/>
	</radialGradient>
	<path class="st3" d="M119.7,29.6c0,0,7.3,11,5.4,26.5c-0.1,0-4-2.5-7.3-2.7C117.6,53.6,120.4,43.7,119.7,29.6z"/>
	
		<radialGradient id="SVGID_4_" cx="52.5237" cy="72.3295" r="56.2141" gradientTransform="matrix(0.9987 -5.030000e-02 5.030000e-02 0.9987 2.482 -17.9083)" gradientUnits="userSpaceOnUse">
		<stop  offset="0.3371" style="stop-color:#C93826"/>
		<stop  offset="0.3551" style="stop-color:#CB3E2D"/>
		<stop  offset="0.3804" style="stop-color:#CF4F3F"/>
		<stop  offset="0.41" style="stop-color:#D76A5D"/>
		<stop  offset="0.4428" style="stop-color:#E19187"/>
		<stop  offset="0.4783" style="stop-color:#EEC2BC"/>
		<stop  offset="0.5155" style="stop-color:#FEFDFD"/>
		<stop  offset="0.5169" style="stop-color:#FFFFFF"/>
	</radialGradient>
	<path class="st4" d="M37.8,33.5c0,0-6.2,8.5-4.1,23.7c0,0.1,4.1-2.2,8-3.5c0.1-0.1-2.3-4.3-1.6-9.9C40.2,43.8,38.3,39.5,37.8,33.5z
		"/>
	<radialGradient id="SVGID_5_" cx="48.2936" cy="61.6818" r="31.9668" gradientUnits="userSpaceOnUse">
		<stop  offset="0.2135" style="stop-color:#C93826"/>
		<stop  offset="0.2355" style="stop-color:#CB3E2D"/>
		<stop  offset="0.2663" style="stop-color:#CF4F3F"/>
		<stop  offset="0.3023" style="stop-color:#D76A5D"/>
		<stop  offset="0.3423" style="stop-color:#E19187"/>
		<stop  offset="0.3856" style="stop-color:#EEC2BC"/>
		<stop  offset="0.431" style="stop-color:#FEFDFD"/>
		<stop  offset="0.4326" style="stop-color:#FFFFFF"/>
	</radialGradient>
	<path class="st5" d="M35.7,66.8c0,0,1.7-5.6,5.4-10.6c0,0,0.4,2,0.5,2.4c0,0.1-3.6,6.7-1.9,17.5C39.7,76.1,37,71.4,35.7,66.8z"/>
	<radialGradient id="SVGID_6_" cx="46.9621" cy="48.2587" r="38.4774" gradientUnits="userSpaceOnUse">
		<stop  offset="0.2135" style="stop-color:#C93826"/>
		<stop  offset="0.316" style="stop-color:#CF3B28"/>
		<stop  offset="0.4593" style="stop-color:#E2422C"/>
		<stop  offset="0.5169" style="stop-color:#EB462E"/>
	</radialGradient>
	<path class="st6" d="M39.8,28.4c0,0-2.2,1.9-4.3,8.9c0.2,0.1,1.9,5.8,5.5,10.6C41.1,48.1,37.8,36.2,39.8,28.4z"/>
	<radialGradient id="SVGID_7_" cx="273.1481" cy="53.8588" r="207.1227" gradientUnits="userSpaceOnUse">
		<stop  offset="0.6685" style="stop-color:#C93826"/>
		<stop  offset="0.7379" style="stop-color:#D63D29"/>
		<stop  offset="0.8708" style="stop-color:#EB462E"/>
		<stop  offset="0.8844" style="stop-color:#EC4B34"/>
		<stop  offset="0.9027" style="stop-color:#ED5B45"/>
		<stop  offset="0.9238" style="stop-color:#F07462"/>
		<stop  offset="0.947" style="stop-color:#F49789"/>
		<stop  offset="0.9718" style="stop-color:#F9C4BC"/>
		<stop  offset="0.9977" style="stop-color:#FEFAF9"/>
		<stop  offset="1" style="stop-color:#FFFFFF"/>
	</radialGradient>
	<path class="st7" d="M45.5,21.4c0,0-12.8,11.2-12,32.8c0.8,22.6,15.8,33.2,17.7,34.3c11.7,7,30.8,15.7,35.4-1
		C86.6,87.7,20.7,71.4,45.5,21.4z"/>
	<path class="st8" d="M45.5,21.4c0,0-12.8,11.2-12,32.8c0.8,22.6,15.8,33.2,17.7,34.3c11.7,7,30.8,15.7,35.4-1
		C86.6,87.7,20.7,71.4,45.5,21.4z"/>
	<path class="st9" d="M102.8,13.6c0,0,14.3,6.4,17.3,19.6c1.1,3.8-1.1,4.1-1.1,4.1S117.9,23.4,102.8,13.6z"/>
	<radialGradient id="SVGID_8_" cx="64.5994" cy="-53.7026" r="87.6797" gradientUnits="userSpaceOnUse">
		<stop  offset="0.6292" style="stop-color:#FFFFFF"/>
		<stop  offset="0.6466" style="stop-color:#FEF9F9"/>
		<stop  offset="0.6705" style="stop-color:#FDEAE7"/>
		<stop  offset="0.6979" style="stop-color:#FBD0CB"/>
		<stop  offset="0.7135" style="stop-color:#F9BEB7"/>
		<stop  offset="0.7317" style="stop-color:#F6A499"/>
		<stop  offset="0.771" style="stop-color:#EE624E"/>
		<stop  offset="0.7865" style="stop-color:#EB462E"/>
		<stop  offset="0.9326" style="stop-color:#DF392B"/>
	</radialGradient>
	<path class="st10" d="M107.6,18.7C99.9,9.6,88.1,4.2,75.2,4.9C59.7,5.9,46.8,15.6,41.1,29c0,0,25.3-23.4,56.2,2.6
		c0,0,6.1-9.4,10-12.7L107.6,18.7z"/>
</g>
<g>
	<rect x="2.8" y="37.5" class="st11" width="154.4" height="34"/>
	<g>
		<path class="st12" d="M18.8,56.9h-3.1v6.3h-4.9v-19h7.8c2,0,3.6,0.5,4.7,1.6c1.2,1.2,1.8,2.7,1.8,4.7C25.2,54.8,23,56.9,18.8,56.9
			z M17.3,48.2h-1.6v4.7h1.6c1.8,0,2.7-0.8,2.7-2.4C20,49,19.1,48.2,17.3,48.2z"/>
		<path class="st12" d="M27.3,63.2v-19h4.9V59h5.9v4.2H27.3z"/>
		<path class="st12" d="M53.6,63.2l-1.2-3.3h-6.8l-1.3,3.3H39l7.3-19h5.4l7.2,19H53.6z M49,50.1l-2.1,6H51L49,50.1z"/>
		<path class="st12" d="M73.9,63.2l-9-11.6v11.6H60v-19h4.9l9,11.6V44.2h4.9v19H73.9z"/>
		<path class="st12" d="M82.4,63.2v-19H84l-0.3-0.8h7.5l0.3,0.8h1.6v4.2h-5.8v3.2h5.5v4.2h-5.5V59h5.8v4.2H82.4z"/>
		<path class="st12" d="M103.6,48.4v14.8h-4.9V48.4h-4v-4.2h13v4.2H103.6z"/>
		<path class="st12" d="M109.3,63.2v-19h10.8v4.2h-5.8v3.2h5.5v4.2h-5.5V59h5.8v4.2H109.3z"/>
	</g>
	<path class="st12" d="M142.9,56.5v6.8c0,0.3-0.1,0.4-0.2,0.4h-5.2c-0.2,0-0.3-0.1-0.3-0.3v-6.8c0-0.3-0.1-0.4-0.3-0.4h-6.8
		c-0.2,0-0.3-0.1-0.3-0.4v-5.2c0-0.2,0.1-0.3,0.3-0.3h6.8c0.2,0,0.3-0.1,0.3-0.3v-5.9c0-0.2,0.1-0.3,0.3-0.3h5.2
		c0.2,0,0.3,0.1,0.3,0.3V50c0,0.3,0.1,0.3,0.3,0.3h6.8c0.2,0,0.3,0.1,0.3,0.3v5.2c0,0.2-0.1,0.3-0.3,0.3h-6.7
		C143,56.1,142.9,56.2,142.9,56.5z"/>
</g>
<g>
	<path class="st13" d="M175.6,15.1c-4.7,0-8,1.8-10,5.4c-0.6,1.2-1.1,2.8-1.4,4.8h7.5c0.1-2.5,1.3-3.7,3.5-3.7
		c2.1,0,3.2,1.1,3.2,3.3c0,2.2-1.3,3.3-4,3.3h-0.5v5.5c0.2,0,0.3,0,0.5,0h0.3c3.2,0,4.8,1.3,4.8,4c0,2.5-1.6,4.3-4.1,4.3
		c-1.2,0-2.3-0.4-3.1-1.3c-0.5-0.5-0.8-1-1-1.5c-0.1-0.3-0.3-0.9-0.4-1.8h-8.3c0.1,1.2,0.2,2,0.3,2.4c0.2,1.1,0.5,2,0.9,2.7
		c0.7,1.3,1.7,2.5,3.2,3.5c2.7,1.8,5.5,2.8,8.3,2.8c1.8,0,3.5-0.3,5-0.8c4.5-1.5,7.3-4.8,7.3-9.5c0-2.7-0.8-4.9-2.5-6.5
		c-0.6-0.6-1.5-1.1-2.6-1.5c0.8-0.5,1.4-1.1,1.9-1.7c1-1.3,1.5-2.9,1.5-4.7c0-2.8-1-5-2.8-6.6C181.2,16,178.7,15.1,175.6,15.1"/>
	<path class="st13" d="M202.7,41.6c-2,0-3.4-1.2-4.3-3.6c-0.6-1.6-0.9-3.7-0.9-6c0-2.5,0.3-4.5,0.9-6c0.9-2.4,2.3-3.5,4.3-3.5
		c3.4,0,5.1,3.2,5.1,9.6c0,2.4-0.3,4.4-0.9,6C206.1,40.4,204.7,41.6,202.7,41.6 M202.6,15.1c-3.9,0-7.1,1.5-9.6,4.7
		c-2.4,3.1-3.6,7.2-3.6,12.2c0,2.5,0.3,4.8,1,6.8c0.9,3,2.4,5.4,4.5,7.1c2.2,1.9,4.8,2.8,7.9,2.8c4,0,7.1-1.5,9.5-4.6
		c2.5-3.1,3.7-7.1,3.7-12.1c0-2.5-0.3-4.9-1-7c-1-3-2.4-5.4-4.5-7.1C208.3,16,205.7,15.1,202.6,15.1"/>
</g>
<g>
	<path class="st13" d="M175.6,71.5l-1.3-3.4h-7.1l-1.3,3.4h-5.4l7.6-19.7h5.6l7.5,19.7H175.6z M170.8,57.9l-2.2,6.3h4.3L170.8,57.9z
		"/>
	<path class="st13" d="M196,71.5l-9.4-12.1v12.1h-5.1V51.8h5.1l9.4,12.1V51.8h5.1v19.7H196z"/>
	<path class="st13" d="M214.1,56.9c-1.1-0.9-2.2-1.3-3.3-1.3c-0.6,0-1.1,0.1-1.5,0.4c-0.5,0.3-0.7,0.7-0.7,1.3s0.4,1,1.1,1.4
		c0.2,0.1,1,0.4,2.5,0.8c1.6,0.5,2.8,1.2,3.6,2c0.8,0.9,1.3,2.1,1.3,3.5c0,1.4-0.2,2.6-0.7,3.6c-0.6,1.2-1.6,2.1-3,2.7
		c-1.2,0.5-2.5,0.8-4,0.8c-1.4,0-2.9-0.3-4.5-0.9c-0.8-0.3-1.4-0.6-1.8-0.9c-0.2-0.1-0.4-0.3-0.6-0.4l2.2-4.1c1.6,1.3,3.1,2,4.5,2
		c0.7,0,1.3-0.2,1.7-0.4c0.5-0.3,0.8-0.8,0.8-1.5c0-0.6-0.3-1-0.8-1.4c-0.3-0.2-0.7-0.3-1.2-0.5c-0.2-0.1-0.5-0.2-1.1-0.3l-1.1-0.3
		c-0.7-0.2-1.3-0.4-1.9-0.8c-1.6-0.8-2.3-2.3-2.3-4.4c0-2,0.6-3.6,1.9-4.8c1.2-1.2,2.9-1.8,4.8-1.8c2.1,0,4.2,0.5,6.3,1.6
		L214.1,56.9z"/>
</g>
</svg>
